Coordinates
version=1
nRows=29
nColumns=24
inDegrees=yes

Units are S.I. units (second, meters, Newtons, ...)
Angles are in degrees.

endheader
time	pelvis_tilt	pelvis_list	pelvis_rotation	pelvis_tx	pelvis_ty	pelvis_tz	hip_flexion_r	hip_adduction_r	hip_rotation_r	knee_angle_r	ankle_angle_r	subtalar_angle_r	mtp_angle_r	hip_flexion_l	hip_adduction_l	hip_rotation_l	knee_angle_l	ankle_angle_l	subtalar_angle_l	mtp_angle_l	lumbar_extension	lumbar_bending	lumbar_rotation
      7.59000000	      1.12643526	      6.88513214	     11.78122301	      1.42773662	      0.87938566	     -0.24396277	     15.59048431	     -7.38967891	    -12.15248849	      2.41354566	      9.86921441	     14.10495041	      0.00000000	    -16.52825851	      9.56283454	     18.48357653	    -11.69196534	     15.46567469	     -3.01045195	      0.00000000	    -21.77288840	     -9.43858715	    -15.63583424
      7.60000000	      1.34110293	      6.86716330	     12.01280464	      1.44023766	      0.87859845	     -0.24406086	     15.19771924	     -7.19296737	    -12.19785359	      2.27719304	      9.66390322	     14.18294950	      0.00000000	    -17.17832056	      9.26444349	     18.14407179	    -12.46875498	     15.26774334	     -2.08835179	      0.00000000	    -21.81185671	     -9.30546527	    -15.64221075
      7.61000000	      1.59324392	      6.79949439	     12.21315768	      1.45293953	      0.87792411	     -0.24429492	     14.85281253	     -6.97469974	    -11.98573237	      1.64873938	      9.29340980	     13.89594860	      0.00000000	    -17.77651288	      8.93057156	     17.68710590	    -13.39311546	     14.94899771	     -1.13067813	      0.00000000	    -21.84196340	     -9.06560387	    -15.62938048
      7.62000000	      1.91339023	      6.68411656	     12.32517840	      1.46576692	      0.87745215	     -0.24453241	     14.53342213	     -6.69963621	    -11.37489782	      0.61458611	      8.58732282	     13.04323761	      0.00000000	    -18.33262917	      8.56399418	     17.02573174	    -14.47662869	     14.49534529	     -0.01964352	      0.00000000	    -21.91541688	     -8.73930394	    -15.57092663
      7.63000000	      2.21786332	      6.53293093	     12.36890887	      1.47872629	      0.87709998	     -0.24484501	     14.27331168	     -6.38842340	    -10.03931341	     -0.67226743	      7.50962300	     11.25669755	      0.00000000	    -18.74465406	      8.21391204	     16.26205590	    -15.75175783	     13.74163529	      0.94756561	      0.00000000	    -21.92160458	     -8.35757165	    -15.42103112
      7.64000000	      2.55742326	      6.30605500	     12.35995130	      1.49174207	      0.87699791	     -0.24512615	     14.07161106	     -5.96886203	     -8.43688979	     -2.23364164	      6.26731669	      9.18125974	      0.00000000	    -18.99629254	      7.80122092	     15.21183966	    -17.29555164	     12.79214727	      2.08306295	      0.00000000	    -21.93358347	     -7.87033061	    -15.27583852
      7.65000000	      2.90405230	      6.01901919	     12.26799045	      1.50474178	      0.87711699	     -0.24525287	     13.95207062	     -5.43062075	     -6.53034421	     -3.99695038	      4.95409999	      6.82020086	      0.00000000	    -19.03386867	      7.35085900	     13.92015839	    -19.13718277	     11.59204575	      3.33970338	      0.00000000	    -21.94673934	     -7.33867010	    -15.05082058
      7.66000000	      3.22030741	      5.66907923	     12.10848732	      1.51767310	      0.87737420	     -0.24531261	     13.90895856	     -4.77623784	     -4.28503217	     -5.86524075	      3.75749333	      4.29623614	      0.00000000	    -18.78902792	      6.88021997	     12.48474391	    -21.32423212	     10.07466837	      4.46681918	      0.00000000	    -21.91485821	     -6.73949974	    -14.77252040
      7.67000000	      3.52996038	      5.25543181	     11.85613381	      1.53043369	      0.87774602	     -0.24516624	     13.95261807	     -3.98381701	     -2.07195400	     -7.87383178	      2.91910441	      2.02655482	      0.00000000	    -18.27276379	      6.36629709	     10.92193910	    -23.86075527	      8.33717206	      5.59809305	      0.00000000	    -21.90468173	     -6.09177339	    -14.50207580
      7.68000000	      3.73412200	      4.79989958	     11.62518931	      1.54309712	      0.87816416	     -0.24501058	     14.02536735	     -3.11549099	      0.11879252	     -9.76752215	      2.34315978	     -0.22576942	      0.00000000	    -17.39343823	      5.83939313	      9.48128710	    -26.73858438	      6.18281421	      6.34990732	      0.00000000	    -21.77251889	     -5.44184661	    -14.15251678
      7.69000000	      3.91034880	      4.28170227	     11.37469222	      1.55549736	      0.87858025	     -0.24478451	     14.09288240	     -2.15797557	      1.95467763	    -11.59550067	      2.25966221	     -1.94898666	      0.00000000	    -16.20901119	      5.24556442	      8.05791081	    -29.97344087	      3.85814222	      7.01329015	      0.00000000	    -21.65941401	     -4.72511817	    -13.84630800
      7.70000000	      4.03724655	      3.70154185	     11.16394224	      1.56763581	      0.87891420	     -0.24456202	     14.10814496	     -1.14233225	      3.36190430	    -13.22341011	      2.58310458	     -3.32836247	      0.00000000	    -14.71840688	      4.57706587	      6.76236615	    -33.52500435	      1.37280688	      7.41385378	      0.00000000	    -21.53337640	     -3.95602986	    -13.49154975
      7.71000000	      4.06413265	      3.09231952	     11.03565664	      1.57941269	      0.87911039	     -0.24445745	     14.08028882	     -0.14739021	      4.41724507	    -14.56128799	      3.17650654	     -4.42418920	      0.00000000	    -12.89689768	      3.89133394	      5.71832797	    -37.32768386	     -1.30354112	      7.41546519	      0.00000000	    -21.36009437	     -3.15992198	    -13.20236619
      7.72000000	      4.02840629	      2.44959580	     11.00724488	      1.59081859	      0.87917310	     -0.24447126	     13.96478320	      0.81895831	      5.07124334	    -15.57714166	      3.99562427	     -5.22008800	      0.00000000	    -10.81481086	      3.16897098	      4.90900140	    -41.30109180	     -4.08049303	      7.05636416	      0.00000000	    -21.18075640	     -2.33069720	    -12.95863608
      7.73000000	      3.96633722	      1.77431760	     11.07364212	      1.60188875	      0.87914460	     -0.24460058	     13.72225444	      1.75620944	      5.38081654	    -16.25323329	      4.93212962	     -5.75819708	      0.00000000	     -8.55965637	      2.41508513	      4.32440323	    -45.33377821	     -6.90708751	      6.30437107	      0.00000000	    -21.02216269	     -1.46756393	    -12.75815463
      7.74000000	      3.92187190	      1.07410175	     11.22161822	      1.61268796	      0.87910655	     -0.24485151	     13.31034521	      2.66822393	      5.42507499	    -16.59184915	      5.89000399	     -6.10422615	      0.00000000	     -6.23356044	      1.64520037	      3.94801913	    -49.30402818	     -9.70265044	      5.16201207	      0.00000000	    -20.91546382	     -0.56719024	    -12.57356637
      7.75000000	      3.88049031	      0.37550433	     11.43165294	      1.62327524	      0.87907126	     -0.24517272	     12.77682547	      3.54106686	      5.30247762	    -16.66696196	      6.82384000	     -6.31478961	      0.00000000	     -3.86890905	      0.90856412	      3.77220888	    -53.11283808	    -12.35485675	      3.69127613	      0.00000000	    -20.82713141	      0.31969416	    -12.39705724
      7.76000000	      3.75604433	     -0.31000259	     11.66140777	      1.63376018	      0.87897581	     -0.24552684	     12.24682076	      4.35293905	      5.03737473	    -16.54957792	      7.73005752	     -6.30475132	      0.00000000	     -1.41352255	      0.24524160	      3.74056530	    -56.68807403	    -14.70397430	      2.05591752	      0.00000000	    -20.61239857	      1.14788592	    -12.23437445
      7.77000000	      3.85791111	     -0.87978311	     11.91394495	      1.64401198	      0.87931014	     -0.24587267	     11.38676576	      5.08913993	      4.75245100	    -16.25972518	      8.43610615	     -6.43577915	      0.00000000	      0.73601317	     -0.28670690	      3.85091009	    -59.91262625	    -16.59660197	      0.25417661	      0.00000000	    -20.74579850	      1.85923867	    -12.00259756
      7.78000000	      3.80913230	     -1.38424860	     12.12792796	      1.65421083	      0.87952164	     -0.24625256	     10.66559213	      5.71442681	      4.48522628	    -15.94709960	      9.20306787	     -6.32293488	      0.00000000	      2.97950058	     -0.64828756	      4.02961565	    -62.82018416	    -17.74837874	     -1.43309836	      0.00000000	    -20.66249258	      2.44881718	    -11.85770141
      7.79000000	      3.90924824	     -1.75190713	     12.27422196	      1.66437019	      0.88014715	     -0.24656978	      9.71778456	      6.24544011	      4.31944577	    -15.54660467	      9.77726632	     -6.33232464	      0.00000000	      4.92958553	     -0.84330865	      4.22450508	    -65.30467380	    -18.13414654	     -2.89631288	      0.00000000	    -20.78426424	      2.87111999	    -11.55654801
      7.80000000	      3.92897535	     -2.01437214	     12.31840446	      1.67442473	      0.88079797	     -0.24680373	      8.86073949	      6.65602661	      4.24387646	    -15.19082290	     10.33117204	     -6.25105549	      0.00000000	      6.85655659	     -0.87051163	      4.36199208	    -67.42253588	    -17.59342157	     -4.00974677	      0.00000000	    -20.83258450	      3.12017547	    -11.25886441
      7.81000000	      3.94062694	     -2.15249924	     12.21979207	      1.68443282	      0.88160242	     -0.24689878	      7.99684911	      6.94617826	      4.29612836	    -14.85874167	     10.84056910	     -6.12001909	      0.00000000	      8.64866561	     -0.74929031	      4.39030395	    -69.13228689	    -16.15622219	     -4.64292757	      0.00000000	    -20.89873051	      3.17524115	    -10.86576172
      7.82000000	      4.01695701	     -2.15052568	     12.00709106	      1.69431121	      0.88266936	     -0.24689909	      7.04227127	      7.10328276	      4.45441410	    -14.53751875	     11.30113904	     -5.93508703	      0.00000000	     10.23855687	     -0.49954664	      4.28303361	    -70.42008283	    -14.11647682	     -5.01477019	      0.00000000	    -21.10850795	      3.05552325	    -10.41408905
      7.83000000	      3.90391925	     -2.05703454	     11.73727475	      1.70418421	      0.88359832	     -0.24684707	      6.25997648	      7.11530218	      4.67162125	    -14.20285523	     11.77045885	     -5.72344529	      0.00000000	     11.92638039	     -0.11310212	      4.13521906	    -71.33324245	    -11.56037633	     -4.92500060	      0.00000000	    -21.08109504	      2.75767280	    -10.00439504
      7.84000000	      3.88786510	     -1.82596601	     11.37608166	      1.71392988	      0.88477553	     -0.24671693	      5.34576183	      6.99126822	      4.94267124	    -13.85884129	     12.25207296	     -5.38718842	      0.00000000	     13.38314456	      0.36735874	      3.85909319	    -71.82675261	     -8.80658030	     -4.62999056	      0.00000000	    -21.24297506	      2.30116177	     -9.56758894
      7.85000000	      3.79143178	     -1.55226359	     10.99974080	      1.72360268	      0.88584310	     -0.24651203	      4.50640215	      6.79764128	      5.16388853	    -13.48710330	     12.72316977	     -5.06598732	      0.00000000	     14.86196558	      0.86358078	      3.51832843	    -71.98167527	     -6.03654855	     -4.17018009	      0.00000000	    -21.31620312	      1.75151093	     -9.11396165
      7.86000000	      3.64464893	     -1.24099238	     10.61110579	      1.73318003	      0.88683609	     -0.24632827	      3.70707379	      6.53864622	      5.40525173	    -13.08688825	     13.15951176	     -4.70546518	      0.00000000	     16.32168205	      1.38026843	      3.12789911	    -71.79530662	     -3.42926469	     -3.70235696	      0.00000000	    -21.34888372	      1.16083752	     -8.70035086
      7.87000000	      3.47210254	     -0.88657918	     10.24786346	      1.74267507	      0.88774307	     -0.24617895	      2.91598860	      6.21897893	      5.64997314	    -12.64858615	     13.59144096	     -4.37643438	      0.00000000	     17.73606728	      1.91579108	      2.70863993	    -71.28123910	     -1.10968236	     -3.32910619	      0.00000000	    -21.37043530	      0.52156373	     -8.36514262
